IKoutput_20to65secs_10hz.mot
version=1
nRows=31
nColumns=19
inDegrees=yes
endheader
time	/jointset/ground_pelvis/pelvis_tilt/value	/jointset/ground_pelvis/pelvis_list/value	/jointset/ground_pelvis/pelvis_rotation/value	/jointset/ground_pelvis/pelvis_tx/value	/jointset/ground_pelvis/pelvis_ty/value	/jointset/ground_pelvis/pelvis_tz/value	/jointset/hip_r/hip_flexion_r/value	/jointset/hip_r/hip_adduction_r/value	/jointset/hip_r/hip_rotation_r/value	/jointset/walker_knee_r/knee_angle_r/value	/jointset/patellofemoral_r/knee_angle_r_beta/value	/jointset/ankle_r/ankle_angle_r/value	/jointset/hip_l/hip_flexion_l/value	/jointset/hip_l/hip_adduction_l/value	/jointset/hip_l/hip_rotation_l/value	/jointset/walker_knee_l/knee_angle_l/value	/jointset/patellofemoral_l/knee_angle_l_beta/value	/jointset/ankle_l/ankle_angle_l/value
20	-3.95008296	-3.55704707	7.64656729	0.88496231	0.95597753	-0.45094541	7.09611222	7.71810939	-9.14603366	8.75662638	0.15283196	6.20983543	35.75160885	-8.54329991	-3.85856921	47.40865173	0.82743706	-1.20580925
20.01000000	-4.08783757	-3.52142833	7.78679552	0.89027479	0.95587878	-0.45101394	6.84470539	7.70581824	-9.23020005	8.74003170	0.15254233	6.58200398	35.68882985	-8.36231322	-4.45699942	44.73411943	0.78075767	-1.26362399
20.02000000	-4.22683086	-3.48409394	7.92436895	0.89560511	0.95578316	-0.45110270	6.60331004	7.68838712	-9.31878241	8.72858662	0.15234257	6.92949273	35.60503543	-8.16871700	-5.05989820	42.05510002	0.73399996	-1.33783467
20.03000000	-4.36860264	-3.44285499	8.05803230	0.90095154	0.95568857	-0.45123602	6.37643539	7.66096908	-9.41195105	8.72878928	0.15234611	7.24542043	35.47682011	-7.94541795	-5.66801470	39.33587227	0.68654049	-1.44362519
20.04000000	-4.51337631	-3.39603735	8.18688409	0.90631349	0.95558969	-0.45143391	6.16460532	7.62017100	-9.50746690	8.74591957	0.15264509	7.53516225	35.28792697	-7.67792082	-6.27129691	36.55065220	0.63792923	-1.58887905
20.05000000	-4.66012357	-3.34203081	8.30964859	0.91169625	0.95548236	-0.45171544	5.96406888	7.56310877	-9.60642939	8.78115893	0.15326014	7.80529414	35.02840943	-7.35419768	-6.84627587	33.68674133	0.58794455	-1.77634114
20.06000000	-4.80661825	-3.27926868	8.42480167	0.91711312	0.95536647	-0.45209894	5.76758439	7.48771096	-9.71369009	8.83133715	0.15413591	8.05988748	34.69203187	-6.96568793	-7.36046782	30.74170027	0.53654389	-2.00784787
20.07000000	-4.94968213	-3.20682234	8.53049595	0.92258282	0.95524303	-0.45259759	5.56665462	7.39404387	-9.83123117	8.89186338	0.15519229	8.30615499	34.27534082	-6.50953604	-7.77770692	27.72131622	0.48382824	-2.28972348
20.08000000	-5.08599370	-3.12505609	8.62333781	0.92812386	0.95510884	-0.45321494	5.35451564	7.28461362	-9.95231660	8.96053320	0.15639081	8.55787102	33.77812866	-5.99067330	-8.05963700	24.63967513	0.43004346	-2.63251070
20.09000000	-5.21303101	-3.03576241	8.69793271	0.93375115	0.95495438	-0.45394336	5.12865748	7.16308799	-10.06443392	9.04032868	0.15778350	8.82999850	33.20361967	-5.42211937	-8.16372942	21.51845202	0.37556784	-3.04453638
20.10000000	-5.32929341	-2.94151813	8.74815542	0.93947710	0.95476603	-0.45476521	4.89072012	7.03294960	-10.15649381	9.13867181	0.15949991	9.13051375	32.55850811	-4.82362882	-8.04343609	18.38639161	0.32090307	-3.52627535
20.11000000	-5.43372119	-2.84507148	8.76926829	0.94531367	0.95452939	-0.45565641	4.64315966	6.89742307	-10.22351722	9.26184634	0.16164971	9.45459446	31.85383212	-4.21990768	-7.65407477	15.28176802	0.26671717	-4.06566227
20.12000000	-5.52522478	-2.74970570	8.76035578	0.95127112	0.95423134	-0.45659026	4.38632423	6.76067386	-10.26687048	9.41031019	0.16424090	9.78723390	31.10772208	-3.63853897	-6.96190767	12.25773011	0.21393775	-4.63202917
20.13000000	-5.60321262	-2.65958151	8.72561539	0.95735280	0.95386082	-0.45754099	4.11992099	6.62842804	-10.29044899	9.58148296	0.16722842	10.11664709	30.34928917	-3.10671204	-5.95612976	9.38691200	0.16383252	-5.17434072
20.14000000	-5.66881695	-2.57899287	8.67333782	0.96354812	0.95341010	-0.45848841	3.84727327	6.50651889	-10.29876408	9.77604536	0.17062418	10.44207473	29.62085001	-2.64651699	-4.66308907	6.76121624	0.11800548	-5.62755569
20.15000000	-5.72539022	-2.51138851	8.61405009	0.96982944	0.95287541	-0.45942175	3.57725438	6.39902152	-10.29763575	10.00001773	0.17453323	10.76897011	28.97588693	-2.27021309	-3.15372762	4.48565163	0.07828939	-5.92223193
20.16000000	-5.77722616	-2.45864012	8.55807698	0.97616123	0.95225838	-0.46034143	3.32121227	6.30765079	-10.29008892	10.26186832	0.17910339	11.10575429	28.46783847	-1.97760529	-1.53635297	2.66064094	0.04643694	-5.99851748
20.17000000	-5.82698964	-2.41989050	8.51079600	0.98252230	0.95157107	-0.46126091	3.08616112	6.23087152	-10.27168741	10.56737976	0.18443557	11.46139211	28.12622901	-1.75696035	0.06156945	1.34559904	0.02348513	-5.83245958
20.18000000	-5.87355821	-2.39054311	8.46786503	0.98892658	0.95083907	-0.46220755	2.86898222	6.16221361	-10.23420255	10.91564192	0.19051389	11.83653460	27.93354086	-1.58965751	1.51527488	0.52276224	0.00912392	-5.46264449
20.19000000	-5.91190814	-2.36279571	8.41534417	0.99542529	0.95009688	-0.46321762	2.65678367	6.09043901	-10.17104963	11.30025012	0.19722657	12.22168301	27.82613095	-1.45652198	2.72565063	0.09901556	0.00172815	-4.98701627
20.20000000	-5.93509868	-2.32768949	8.33489338	1.00208961	0.94937931	-0.46432671	2.43319996	6.00251710	-10.07668204	11.71521780	0.20446912	12.60887291	27.72066765	-1.34219881	3.63720024	-0.05172960	-0.00090285	-4.52551709
20.21000000	-5.93688255	-2.27758611	8.20970261	1.00898724	0.94871505	-0.46555994	2.18518302	5.88738026	-9.94451378	12.15913582	0.21221696	12.99816331	27.54431732	-1.23626923	4.24125589	-0.04261530	-0.00074378	-4.17958197
20.22000000	-5.91370353	-2.20770955	8.02792029	1.01616324	0.94812303	-0.46692710	1.90653749	5.73772805	-9.76847860	12.63383587	0.22050203	13.38851866	27.25254820	-1.13213697	4.56457138	0.04898501	0.00085495	-4.01313922
20.23000000	-5.86573347	-2.11621696	7.78441743	1.02362859	0.94761093	-0.46842662	1.59900031	5.54920304	-9.54739176	13.14176742	0.22936711	13.76878374	26.83362404	-1.02458753	4.65447215	0.18180885	0.00317316	-4.05107119
20.24000000	-5.79692387	-2.00396227	7.48294675	1.03135852	0.94717672	-0.47005233	1.27186555	5.31966720	-9.28975702	13.68529336	0.23885343	14.11878708	26.30444748	-0.90785296	4.56991984	0.33826035	0.00590376	-4.28667864
20.25000000	-5.71427809	-1.87445412	7.13691080	1.03929916	0.94681247	-0.47179489	0.94049810	5.04997721	-9.01450219	14.26729573	0.24901129	14.41451564	25.70141129	-0.77624191	4.37458332	0.50705550	0.00884979	-4.70000463
20.26000000	-5.62630347	-1.73307524	6.76561076	1.04738082	0.94650845	-0.47364027	0.62415626	4.74421477	-8.74396615	14.89332111	0.25993749	14.63655425	25.06690933	-0.62694389	4.12379685	0.66770301	0.01165362	-5.27827990
20.27000000	-5.54040759	-1.58545211	6.38742977	1.05553833	0.94625697	-0.47556965	0.34179904	4.40850856	-8.49440475	15.57228330	0.27178762	14.77696654	24.43351376	-0.46273165	3.85024766	0.78547482	0.01370912	-6.02367178
20.28000000	-5.46027069	-1.43578592	6.01467632	1.06373010	0.94605591	-0.47756179	0.10628676	4.04939225	-8.27165203	16.31275601	0.28471130	14.83593677	23.81443398	-0.29187089	3.55998445	0.82468011	0.01439338	-6.94605169
20.29000000	-5.38504761	-1.28549554	5.65287707	1.07194539	0.94591149	-0.47959956	-0.07930841	3.67168480	-8.07288227	17.11813281	0.29876778	14.81422450	23.20694954	-0.12389744	3.24138194	0.77334940	0.01349749	-8.03943339
20.30000000	-5.31090824	-1.13252367	5.30345696	1.08019808	0.94584187	-0.48167643	-0.22067028	3.27632416	-7.89199845	17.98488034	0.31389538	14.70806568	22.60290043	0.03602109	2.87981702	0.65482581	0.01142887	-9.25058406
